<?xml version="1.0" encoding="UTF-8"?>
<svg xmlns="http://www.w3.org/2000/svg" viewBox="-4.09076 -1.850844 3.514854 4.856389" preserveAspectRatio="xMidYMid meet" role="img">
<style>.edge{fill:none;stroke:var(--udg-edge,#60a5fa);stroke-width:var(--udg-edge-width,1.80px);stroke-opacity:var(--udg-edge-opacity,.38);stroke-linecap:round;vector-effect:non-scaling-stroke}.node{fill:var(--udg-node,#f8fafc);stroke:var(--udg-node-outline,#020617);stroke-width:var(--udg-node-outline-width,.75px);vector-effect:non-scaling-stroke}</style>
<g class="edges"><path class="edge" d="M-1.833333 0.552771L-2.833333 0.552771M-2.833333 0.552771L-2.333333 1.418796M-1.833333 0.552771L-2.333333 1.418796M-2.728714 1.839519L-3.728714 1.839519M-3.728714 1.839519L-3.228714 0.973494M-2.333333 1.418796L-3.228714 0.973494M-2.728714 1.839519L-3.228714 0.973494M-1.833333 0.552771L-1.771286 1.550844M-2.728714 1.839519L-1.771286 1.550844M-2.333333 1.418796L-1.437953 1.864099M-1.437953 1.864099L-0.937953 0.998073M-1.771286 1.550844L-0.937953 0.998073M-1.833333 0.552771L-0.937953 0.998073M-2.833333 0.552771L-1.937953 0.998073M-1.437953 1.864099L-1.937953 0.998073M-0.937953 0.998073L-1.937953 0.998073M-0.937953 0.998073L-1.89538 1.286748M-2.728714 1.839519L-1.89538 1.286748M-1.937953 0.998073L-2.89538 1.286748M-3.728714 1.839519L-2.89538 1.286748M-1.89538 1.286748L-2.89538 1.286748M-2.89538 1.286748L-2.39538 0.420723M-3.228714 0.973494L-2.39538 0.420723M-2.333333 1.418796L-2.39538 0.420723M-1.89538 1.286748L-2.39538 0.420723M-2.89538 1.286748L-2.39538 2.152774M-1.437953 1.864099L-2.39538 2.152774M-1.89538 1.286748L-2.39538 2.152774M-2.833333 0.552771L-2.771286 1.550844M-1.937953 0.998073L-2.771286 1.550844M-3.728714 1.839519L-2.771286 1.550844M-1.771286 1.550844L-2.771286 1.550844M-2.771286 1.550844L-2.271286 2.416869M-2.333333 1.418796L-2.271286 2.416869M-1.437953 1.864099L-2.271286 2.416869M-1.771286 1.550844L-2.271286 2.416869M-1.937953 0.998073L-2.666667 0.313255M-2.89538 1.286748L-2.666667 0.313255M-2.666667 0.313255L-3.5 0.866025M-2.771286 1.550844L-3.5 0.866025M-3.728714 1.839519L-3.5 0.866025M-3.5 0.866025L-2.5 0.866025M-1.771286 1.550844L-2.5 0.866025M-2.728714 1.839519L-2.5 0.866025M-2.5 0.866025L-2 0M-2.833333 0.552771L-2 0M-1.937953 0.998073L-2 0M-3.5 0.866025L-3 0M-2.5 0.866025L-3 0M-2 0L-3 0M-3.228714 0.973494L-3 0M-2.666667 0.313255L-1.666667 0.313255M-2.5 0.866025L-1.666667 0.313255M-0.937953 0.998073L-1.666667 0.313255M-1.89538 1.286748L-1.666667 0.313255M-2.5 0.866025L-2.562047 -0.132048M-1.666667 0.313255L-2.562047 -0.132048M-1.833333 0.552771L-2.562047 -0.132048M-3.728714 1.839519L-3.228714 2.705545M-2.271286 2.416869L-3.228714 2.705545M-2.39538 2.152774L-3.228714 2.705545M-2.728714 1.839519L-3.228714 2.705545M-2.562047 -0.132048L-2.79076 0.841446M-1.833333 0.552771L-2.79076 0.841446M-2.728714 1.839519L-2.79076 0.841446M-1.89538 1.286748L-2.79076 0.841446M-3.228714 0.973494L-3.29076 -0.024579M-2.39538 0.420723L-3.29076 -0.024579M-2.79076 0.841446L-3.29076 -0.024579M-2.666667 0.313255L-2.166667 -0.552771M-3 0L-2.166667 -0.552771M-1.666667 0.313255L-2.166667 -0.552771M-2.39538 0.420723L-2.166667 -0.552771M-2.833333 0.552771L-3.79076 0.841446M-3.728714 1.839519L-3.79076 0.841446M-2.89538 1.286748L-3.79076 0.841446M-3.29076 -0.024579L-3.79076 0.841446M-2.79076 0.841446L-3.79076 0.841446M-3.79076 0.841446L-3.29076 1.707471M-2.333333 1.418796L-3.29076 1.707471M-3.228714 2.705545L-3.29076 1.707471M-2.39538 2.152774L-3.29076 1.707471M-2.79076 0.841446L-3.29076 1.707471M-2.5 0.866025L-1.5 0.866025M-2 0L-1.5 0.866025M-2.333333 1.418796L-1.5 0.866025M-2.39538 0.420723L-1.5 0.866025M-1.437953 1.864099L-1.5 0.866025M-3.5 0.866025L-3.562047 -0.132048M-2.666667 0.313255L-3.562047 -0.132048M-2.562047 -0.132048L-3.562047 -0.132048M-2.833333 0.552771L-3.562047 -0.132048M-3.79076 0.841446L-3.562047 -0.132048M-2 0L-2.957427 0.288675M-3.79076 0.841446L-2.957427 0.288675M-2.89538 1.286748L-2.957427 0.288675M-3.562047 -0.132048L-2.728714 -0.684819M-2.666667 0.313255L-2.728714 -0.684819M-2 0L-2.728714 -0.684819M-2.957427 0.288675L-2.728714 -0.684819M-2 0L-1 0M-1.5 0.866025L-1 0M-1.833333 0.552771L-1 0M-0.937953 0.998073L-1 0M-3.562047 -0.132048L-3.062047 -0.998073M-3 0L-3.062047 -0.998073M-2.166667 -0.552771L-3.062047 -0.998073M-2.562047 -0.132048L-3.062047 -0.998073M-3.29076 -0.024579L-3.062047 -0.998073M-2.728714 -0.684819L-1.728714 -0.684819M-2.562047 -0.132048L-1.728714 -0.684819M-1.666667 0.313255L-1.728714 -0.684819M-1 0L-1.728714 -0.684819M-3.562047 -0.132048L-3.062047 0.733978M-2.562047 -0.132048L-3.062047 0.733978M-2.333333 1.418796L-3.062047 0.733978M-3.29076 1.707471L-3.062047 0.733978M-3.5 0.866025L-3 1.732051M-3.062047 0.733978L-3 1.732051M-2.5 0.866025L-3 1.732051M-2.271286 2.416869L-3 1.732051M-3.228714 2.705545L-3 1.732051M-2.728714 -0.684819L-2.228714 -1.550844M-3.062047 -0.998073L-2.228714 -1.550844M-2.166667 -0.552771L-2.228714 -1.550844M-1.728714 -0.684819L-2.228714 -1.550844M-1.728714 -0.684819L-1.957427 0.288675M-2.957427 0.288675L-1.957427 0.288675M-1 0L-1.957427 0.288675M-2.79076 0.841446L-1.957427 0.288675M-1.89538 1.286748L-1.957427 0.288675M-2.228714 -1.550844L-2.457427 -0.57735M-2.957427 0.288675L-2.457427 -0.57735M-3.29076 -0.024579L-2.457427 -0.57735M-2.39538 0.420723L-2.457427 -0.57735M-1.957427 0.288675L-2.457427 -0.57735M-3.062047 -0.998073L-2.333333 -0.313255M-2.833333 0.552771L-2.333333 -0.313255M-3.29076 -0.024579L-2.333333 -0.313255M-1.833333 0.552771L-2.333333 -0.313255M-3 0L-2.271286 0.684819M-2.771286 1.550844L-2.271286 0.684819M-2.333333 -0.313255L-2.271286 0.684819M-3.228714 0.973494L-2.271286 0.684819M-1.771286 1.550844L-2.271286 0.684819M-2.666667 0.313255L-2.166667 1.17928M-3 1.732051L-2.166667 1.17928M-3.062047 0.733978L-2.166667 1.17928M-1.666667 0.313255L-2.166667 1.17928M-1.437953 1.864099L-2.166667 1.17928M-2.39538 2.152774L-2.166667 1.17928M-2.166667 -0.552771L-1.437953 0.132048M-1.937953 0.998073L-1.437953 0.132048M-2.271286 0.684819L-1.437953 0.132048M-2.333333 -0.313255L-1.437953 0.132048M-2.39538 0.420723L-1.437953 0.132048M-0.937953 0.998073L-1.437953 0.132048M-2.228714 -1.550844L-1.5 -0.866025M-2 0L-1.5 -0.866025M-2.333333 -0.313255L-1.5 -0.866025M-1.437953 0.132048L-1.5 -0.866025M-2.457427 -0.57735L-1.5 -0.866025M-1 0L-1.5 -0.866025M-3 0L-2.10462 0.445302M-2.166667 -0.552771L-2.10462 0.445302M-3.062047 0.733978L-2.10462 0.445302M-2.333333 1.418796L-2.10462 0.445302M-3.062047 0.733978L-2.062047 0.733978M-2.562047 -0.132048L-2.062047 0.733978M-2.89538 1.286748L-2.062047 0.733978M-2.957427 0.288675L-2.062047 0.733978M-2.10462 0.445302L-1.10462 0.445302M-1.937953 0.998073L-1.10462 0.445302M-2 0L-1.10462 0.445302M-2.062047 0.733978L-1.10462 0.445302M-2.957427 0.288675L-2.457427 1.154701M-1.5 0.866025L-2.457427 1.154701M-3.29076 1.707471L-2.457427 1.154701M-2.39538 2.152774L-2.457427 1.154701M-1.957427 0.288675L-2.457427 1.154701M-3 1.732051L-2 1.732051M-2.5 0.866025L-2 1.732051M-2.89538 1.286748L-2 1.732051M-2.062047 0.733978L-2 1.732051M-1.5 0.866025L-2 1.732051M-2.10462 0.445302L-1.60462 1.311328M-2.5 0.866025L-1.60462 1.311328M-1.666667 0.313255L-1.60462 1.311328M-1.10462 0.445302L-1.60462 1.311328M-2.562047 -0.132048L-1.562047 -0.132048M-2.062047 0.733978L-1.562047 -0.132048M-2.39538 0.420723L-1.562047 -0.132048M-2.457427 -0.57735L-1.562047 -0.132048M-1.5 0.866025L-1.562047 -0.132048M-1.60462 1.311328L-1.833333 2.284822M-2.333333 1.418796L-1.833333 2.284822M-2.728714 1.839519L-1.833333 2.284822M-1.89538 1.286748L-1.833333 2.284822M-3.5 0.866025L-2.60462 1.311328M-2.666667 0.313255L-2.60462 1.311328M-2.10462 0.445302L-2.60462 1.311328M-1.60462 1.311328L-2.60462 1.311328M-2.60462 1.311328L-2.833333 2.284822M-3.728714 1.839519L-2.833333 2.284822M-2.89538 1.286748L-2.833333 2.284822M-2 1.732051L-2.833333 2.284822M-2.333333 1.418796L-2.833333 2.284822M-1.833333 2.284822L-2.833333 2.284822M-2.728714 -0.684819L-2.228714 0.181207M-3.062047 0.733978L-2.228714 0.181207M-2.166667 1.17928L-2.228714 0.181207M-1.728714 -0.684819L-2.228714 0.181207M-1.5 0.866025L-2.228714 0.181207M-2.457427 1.154701L-2.228714 0.181207M-1.60462 1.311328L-0.875906 1.996146M-1.771286 1.550844L-0.875906 1.996146M-0.937953 0.998073L-0.875906 1.996146M-1.833333 2.284822L-0.875906 1.996146M-2.60462 1.311328L-1.875906 1.996146M-2.771286 1.550844L-1.875906 1.996146M-1.937953 0.998073L-1.875906 1.996146M-2.833333 2.284822L-1.875906 1.996146M-0.875906 1.996146L-1.875906 1.996146"/></g>
<g class="nodes"><circle class="node" cx="-1.833333" cy="0.552771" r="0.075"/><circle class="node" cx="-2.833333" cy="0.552771" r="0.075"/><circle class="node" cx="-2.333333" cy="1.418796" r="0.075"/><circle class="node" cx="-2.728714" cy="1.839519" r="0.075"/><circle class="node" cx="-3.728714" cy="1.839519" r="0.075"/><circle class="node" cx="-3.228714" cy="0.973494" r="0.075"/><circle class="node" cx="-1.771286" cy="1.550844" r="0.075"/><circle class="node" cx="-1.437953" cy="1.864099" r="0.075"/><circle class="node" cx="-0.937953" cy="0.998073" r="0.075"/><circle class="node" cx="-1.937953" cy="0.998073" r="0.075"/><circle class="node" cx="-1.89538" cy="1.286748" r="0.075"/><circle class="node" cx="-2.89538" cy="1.286748" r="0.075"/><circle class="node" cx="-2.39538" cy="0.420723" r="0.075"/><circle class="node" cx="-2.39538" cy="2.152774" r="0.075"/><circle class="node" cx="-2.771286" cy="1.550844" r="0.075"/><circle class="node" cx="-2.271286" cy="2.416869" r="0.075"/><circle class="node" cx="-2.666667" cy="0.313255" r="0.075"/><circle class="node" cx="-3.5" cy="0.866025" r="0.075"/><circle class="node" cx="-2.5" cy="0.866025" r="0.075"/><circle class="node" cx="-2" cy="0" r="0.075"/><circle class="node" cx="-3" cy="0" r="0.075"/><circle class="node" cx="-1.666667" cy="0.313255" r="0.075"/><circle class="node" cx="-2.562047" cy="-0.132048" r="0.075"/><circle class="node" cx="-3.228714" cy="2.705545" r="0.075"/><circle class="node" cx="-2.79076" cy="0.841446" r="0.075"/><circle class="node" cx="-3.29076" cy="-0.024579" r="0.075"/><circle class="node" cx="-2.166667" cy="-0.552771" r="0.075"/><circle class="node" cx="-3.79076" cy="0.841446" r="0.075"/><circle class="node" cx="-3.29076" cy="1.707471" r="0.075"/><circle class="node" cx="-1.5" cy="0.866025" r="0.075"/><circle class="node" cx="-3.562047" cy="-0.132048" r="0.075"/><circle class="node" cx="-2.957427" cy="0.288675" r="0.075"/><circle class="node" cx="-2.728714" cy="-0.684819" r="0.075"/><circle class="node" cx="-1" cy="0" r="0.075"/><circle class="node" cx="-3.062047" cy="-0.998073" r="0.075"/><circle class="node" cx="-1.728714" cy="-0.684819" r="0.075"/><circle class="node" cx="-3.062047" cy="0.733978" r="0.075"/><circle class="node" cx="-3" cy="1.732051" r="0.075"/><circle class="node" cx="-2.228714" cy="-1.550844" r="0.075"/><circle class="node" cx="-1.957427" cy="0.288675" r="0.075"/><circle class="node" cx="-2.457427" cy="-0.57735" r="0.075"/><circle class="node" cx="-2.333333" cy="-0.313255" r="0.075"/><circle class="node" cx="-2.271286" cy="0.684819" r="0.075"/><circle class="node" cx="-2.166667" cy="1.17928" r="0.075"/><circle class="node" cx="-1.437953" cy="0.132048" r="0.075"/><circle class="node" cx="-1.5" cy="-0.866025" r="0.075"/><circle class="node" cx="-2.10462" cy="0.445302" r="0.075"/><circle class="node" cx="-2.062047" cy="0.733978" r="0.075"/><circle class="node" cx="-1.10462" cy="0.445302" r="0.075"/><circle class="node" cx="-2.457427" cy="1.154701" r="0.075"/><circle class="node" cx="-2" cy="1.732051" r="0.075"/><circle class="node" cx="-1.60462" cy="1.311328" r="0.075"/><circle class="node" cx="-1.562047" cy="-0.132048" r="0.075"/><circle class="node" cx="-1.833333" cy="2.284822" r="0.075"/><circle class="node" cx="-2.60462" cy="1.311328" r="0.075"/><circle class="node" cx="-2.833333" cy="2.284822" r="0.075"/><circle class="node" cx="-2.228714" cy="0.181207" r="0.075"/><circle class="node" cx="-0.875906" cy="1.996146" r="0.075"/><circle class="node" cx="-1.875906" cy="1.996146" r="0.075"/></g>
</svg>
