<?xml version="1.0" encoding="UTF-8"?>
<svg xmlns="http://www.w3.org/2000/svg" viewBox="-3.152807 -2.164099 4.619474 4.856389" preserveAspectRatio="xMidYMid meet" role="img">
<style>.edge{fill:none;stroke:var(--udg-edge,#60a5fa);stroke-width:var(--udg-edge-width,1.35px);stroke-opacity:var(--udg-edge-opacity,.38);stroke-linecap:round;vector-effect:non-scaling-stroke}.node{fill:var(--udg-node,#f8fafc);stroke:var(--udg-node-outline,#020617);stroke-width:var(--udg-node-outline-width,.75px);vector-effect:non-scaling-stroke}</style>
<g class="edges"><path class="edge" d="M-1.624094 -0.337834L-1.562047 0.660239M-1.624094 -0.337834L-1.39538 -1.311328M-1.562047 0.660239L-0.728714 0.107468M-1.624094 -0.337834L-0.728714 0.107468M-1.562047 0.660239L-2.29076 -0.024579M-1.39538 -1.311328L-2.352807 -1.022653M-2.29076 -0.024579L-2.352807 -1.022653M-1.624094 -0.337834L-2.352807 -1.022653M-1.39538 -1.311328L-0.5 -0.866025M-0.728714 0.107468L-0.5 -0.866025M-1.39538 -1.311328L-1.333333 -0.313255M-0.5 -0.866025L-1.333333 -0.313255M-2.29076 -0.024579L-1.333333 -0.313255M-1.562047 0.660239L-1.333333 -0.313255M-0.5 -0.866025L-1.457427 -0.57735M-2.29076 -0.024579L-1.457427 -0.57735M-2.352807 -1.022653L-1.457427 -0.57735M-0.728714 0.107468L-1.457427 -0.57735M-2.29076 -0.024579L-1.79076 0.841446M-1.39538 -1.311328L-0.89538 -0.445302M-1.39538 -1.311328L-0.39538 -1.311328M-0.89538 -0.445302L-0.39538 -1.311328M-2.352807 -1.022653L-1.852807 -0.156627M-0.89538 -0.445302L-1.852807 -0.156627M-1.79076 0.841446L-1.852807 -0.156627M-1.457427 -0.57735L-0.957427 0.288675M-1.79076 0.841446L-0.957427 0.288675M-1.852807 -0.156627L-0.957427 0.288675M-0.5 -0.866025L0 0M-0.89538 -0.445302L0 0M-0.957427 0.288675L0 0M-0.5 -0.866025L0.5 -0.866025M0 0L0.5 -0.866025M-0.39538 -1.311328L0.5 -0.866025M-1.333333 -0.313255L-0.833333 0.552771M-0.89538 -0.445302L-0.833333 0.552771M0 0L-0.833333 0.552771M-1.79076 0.841446L-0.833333 0.552771M-0.833333 0.552771L-1.062047 1.526265M-1.79076 0.841446L-1.062047 1.526265M-1.562047 0.660239L-1.062047 1.526265M-0.89538 -0.445302L-1.124094 0.528191M-1.852807 -0.156627L-1.124094 0.528191M-1.624094 -0.337834L-1.124094 0.528191M-1.062047 1.526265L-1.124094 0.528191M-1.333333 -0.313255L-0.333333 -0.313255M-0.833333 0.552771L-0.333333 -0.313255M-0.39538 -1.311328L-0.333333 -0.313255M0.5 -0.866025L-0.333333 -0.313255M0 0L-0.228714 0.973494M-0.957427 0.288675L-0.228714 0.973494M-0.728714 0.107468L-0.228714 0.973494M-1.062047 1.526265L-0.228714 0.973494M-1.124094 0.528191L-0.228714 0.973494M-0.833333 0.552771L0.166667 0.552771M-0.333333 -0.313255L0.166667 0.552771M-0.728714 0.107468L0.166667 0.552771M-2.29076 -0.024579L-1.29076 -0.024579M-0.333333 -0.313255L-1.29076 -0.024579M-1.79076 0.841446L-1.29076 -0.024579M-0.89538 -0.445302L0.10462 -0.445302M-0.39538 -1.311328L0.10462 -0.445302M-0.728714 0.107468L0.10462 -0.445302M0.166667 0.552771L0.10462 -0.445302M-1.457427 -0.57735L-0.457427 -0.57735M0.5 -0.866025L-0.457427 -0.57735M-0.957427 0.288675L-0.457427 -0.57735M-1.29076 -0.024579L-0.457427 -0.57735M0.5 -0.866025L0.271286 0.107468M-0.457427 -0.57735L0.271286 0.107468M-0.728714 0.107468L0.271286 0.107468M-0.228714 0.973494L0.271286 0.107468M0 0L1 0M0.5 -0.866025L1 0M0.166667 0.552771L1 0M0.10462 -0.445302L1 0M-0.333333 -0.313255L-0.562047 0.660239M-1.29076 -0.024579L-0.562047 0.660239M-1.562047 0.660239L-0.562047 0.660239M-1.062047 1.526265L-0.562047 0.660239M0.271286 0.107468L-0.562047 0.660239M-0.39538 -1.311328L-0.624094 -0.337834M-1.624094 -0.337834L-0.624094 -0.337834M-1.124094 0.528191L-0.624094 -0.337834M-0.562047 0.660239L-0.624094 -0.337834M0.271286 0.107468L-0.624094 -0.337834M-1.79076 0.841446L-0.79076 0.841446M-1.29076 -0.024579L-0.79076 0.841446M0.166667 0.552771L-0.79076 0.841446M-0.957427 0.288675L0.042573 0.288675M-0.457427 -0.57735L0.042573 0.288675M1 0L0.042573 0.288675M-0.79076 0.841446L0.042573 0.288675M1 0L0.771286 0.973494M0.042573 0.288675L0.771286 0.973494M-0.228714 0.973494L0.771286 0.973494M0.271286 0.107468L0.771286 0.973494M0.166667 0.552771L-0.062047 1.526265M-0.79076 0.841446L-0.062047 1.526265M-1.062047 1.526265L-0.062047 1.526265M-0.562047 0.660239L-0.062047 1.526265M0.771286 0.973494L-0.062047 1.526265M-1.852807 -0.156627L-0.852807 -0.156627M0.10462 -0.445302L-0.852807 -0.156627M-0.79076 0.841446L-0.852807 -0.156627M0.042573 0.288675L-0.852807 -0.156627M0.10462 -0.445302L-0.124094 0.528191M-0.852807 -0.156627L-0.124094 0.528191M-1.124094 0.528191L-0.124094 0.528191M-0.624094 -0.337834L-0.124094 0.528191M-0.062047 1.526265L-0.124094 0.528191M0.771286 0.973494L-0.124094 0.528191M-2.352807 -1.022653L-1.352807 -1.022653M-0.39538 -1.311328L-1.352807 -1.022653M-1.852807 -0.156627L-1.352807 -1.022653M-1.29076 -0.024579L-1.352807 -1.022653M-0.457427 -0.57735L-1.352807 -1.022653M-0.852807 -0.156627L-1.352807 -1.022653M-0.624094 -0.337834L-1.352807 -1.022653M-2.29076 -0.024579L-1.39538 0.420723M-1.457427 -0.57735L-1.39538 0.420723M-0.89538 -0.445302L-1.39538 0.420723M-1.39538 0.420723L-0.39538 0.420723M-0.89538 -0.445302L-0.39538 0.420723M-1.29076 -0.024579L-0.39538 0.420723M-0.457427 -0.57735L-0.39538 0.420723M0.10462 -0.445302L-0.39538 0.420723M-1.29076 -0.024579L-1.228714 0.973494M-0.39538 0.420723L-1.228714 0.973494M-0.728714 0.107468L-1.228714 0.973494M-0.228714 0.973494L-1.228714 0.973494M-1.228714 0.973494L-2.124094 0.528191M-1.29076 -0.024579L-2.124094 0.528191M-1.624094 -0.337834L-2.124094 0.528191M-1.124094 0.528191L-2.124094 0.528191M-1.39538 -1.311328L-1.89538 -0.445302M-1.39538 0.420723L-1.89538 -0.445302M-0.89538 -0.445302L-1.89538 -0.445302M-2.124094 0.528191L-1.89538 -0.445302M-1.89538 -0.445302L-2.852807 -0.156627M-2.352807 -1.022653L-2.852807 -0.156627M-1.852807 -0.156627L-2.852807 -0.156627M-2.124094 0.528191L-2.852807 -0.156627M-2.852807 -0.156627L-2.79076 0.841446M-2.29076 -0.024579L-2.79076 0.841446M-1.79076 0.841446L-2.79076 0.841446M-2.79076 0.841446L-1.957427 0.288675M-2.852807 -0.156627L-1.957427 0.288675M-1.457427 -0.57735L-1.957427 0.288675M-0.957427 0.288675L-1.957427 0.288675M-1.228714 0.973494L-1.957427 0.288675M-2.79076 0.841446L-2.062047 1.526265M-2.124094 0.528191L-2.062047 1.526265M-1.228714 0.973494L-2.062047 1.526265M-1.562047 0.660239L-2.062047 1.526265M-1.062047 1.526265L-2.062047 1.526265M-1.89538 -0.445302L-1.833333 0.552771M-1.333333 -0.313255L-1.833333 0.552771M-2.79076 0.841446L-1.833333 0.552771M-0.833333 0.552771L-1.833333 0.552771M-2.062047 1.526265L-1.833333 0.552771M-1.39538 0.420723L-1.624094 1.394217M-2.124094 0.528191L-1.624094 1.394217M-0.79076 0.841446L-1.624094 1.394217M-1.124094 0.528191L-1.624094 1.394217M-1.228714 0.973494L-0.728714 1.839519M-1.624094 1.394217L-0.728714 1.839519M-0.79076 0.841446L-0.728714 1.839519M-0.228714 0.973494L-0.728714 1.839519M-0.39538 0.420723L-0.624094 1.394217M-1.624094 1.394217L-0.624094 1.394217M-1.124094 0.528191L-0.624094 1.394217M-0.124094 0.528191L-0.624094 1.394217M-0.728714 1.839519L0.271286 1.839519M-0.228714 0.973494L0.271286 1.839519M-0.624094 1.394217L0.271286 1.839519M0.771286 0.973494L0.271286 1.839519M-2.852807 -0.156627L-2.352807 0.709398M-1.39538 0.420723L-2.352807 0.709398M-1.852807 -0.156627L-2.352807 0.709398M-1.624094 1.394217L-2.352807 0.709398M-1.062047 1.526265L-0.562047 2.39229M-0.624094 1.394217L-0.562047 2.39229M0.271286 1.839519L-0.562047 2.39229M-0.062047 1.526265L-0.562047 2.39229M-0.833333 0.552771L-0.333333 1.418796M-1.228714 0.973494L-0.333333 1.418796M-0.39538 0.420723L-0.333333 1.418796M0.166667 0.552771L-0.333333 1.418796M-0.562047 2.39229L-0.333333 1.418796M-1.833333 0.552771L-1.333333 1.418796M-1.39538 0.420723L-1.333333 1.418796M-0.833333 0.552771L-1.333333 1.418796M-0.333333 1.418796L-1.333333 1.418796M-2.79076 0.841446L-2.29076 1.707471M-1.333333 1.418796L-2.29076 1.707471M-2.352807 0.709398L-2.29076 1.707471M-1.79076 0.841446L-2.29076 1.707471M-1.957427 0.288675L-1.457427 1.154701M-2.29076 1.707471L-1.457427 1.154701M-2.352807 0.709398L-1.457427 1.154701M-0.957427 0.288675L-1.457427 1.154701M-0.728714 1.839519L-1.457427 1.154701M-2.352807 0.709398L-1.352807 0.709398M-1.852807 -0.156627L-1.352807 0.709398M-0.39538 0.420723L-1.352807 0.709398M-0.852807 -0.156627L-1.352807 0.709398M-0.624094 1.394217L-1.352807 0.709398M-1.833333 0.552771L-1 0M-1.89538 -0.445302L-1 0M-0.5 -0.866025L-1 0M-1.957427 0.288675L-1 0M0 0L-1 0M-1.228714 0.973494L-1 0M-1 0L-0.5 0.866025M-1.333333 1.418796L-0.5 0.866025M-1.39538 0.420723L-0.5 0.866025M0 0L-0.5 0.866025M-1.457427 1.154701L-0.5 0.866025M-0.728714 1.839519L-0.5 0.866025M-1.457427 1.154701L-0.457427 1.154701M-0.957427 0.288675L-0.457427 1.154701M-1.352807 0.709398L-0.457427 1.154701M0.042573 0.288675L-0.457427 1.154701M0.271286 1.839519L-0.457427 1.154701M-2.29076 1.707471L-1.29076 1.707471M-1.79076 0.841446L-1.29076 1.707471M-0.333333 1.418796L-1.29076 1.707471M-1.352807 0.709398L-1.29076 1.707471M-0.457427 1.154701L-1.29076 1.707471M-0.79076 0.841446L-1.29076 1.707471M-0.562047 2.39229L-1.29076 1.707471M-0.5 0.866025L0.5 0.866025M0 0L0.5 0.866025M-0.333333 1.418796L0.5 0.866025M-0.39538 0.420723L0.5 0.866025M1 0L0.5 0.866025M-0.457427 1.154701L0.5 0.866025M0.271286 1.839519L0.5 0.866025M-1.333333 1.418796L-1.562047 2.39229M-2.29076 1.707471L-1.562047 2.39229M-2.062047 1.526265L-1.562047 2.39229M-1.624094 1.394217L-1.562047 2.39229M-0.728714 1.839519L-1.562047 2.39229M-1.062047 1.526265L-1.562047 2.39229M-0.562047 2.39229L-1.562047 2.39229M-1.39538 0.420723L-0.562047 -0.132048M-1.457427 -0.57735L-0.562047 -0.132048M-0.5 0.866025L-0.562047 -0.132048M0.166667 0.552771L-0.562047 -0.132048M-0.79076 0.841446L-0.562047 -0.132048M-1.29076 -0.024579L-0.29076 -0.024579M-0.79076 0.841446L-0.29076 -0.024579M-1.124094 0.528191L-0.29076 -0.024579M-0.228714 0.973494L-0.29076 -0.024579M-0.562047 -0.132048L-0.062047 -0.998073M-0.89538 -0.445302L-0.062047 -0.998073M0 0L-0.062047 -0.998073M-0.29076 -0.024579L-0.062047 -0.998073M-1.89538 -0.445302L-1.062047 -0.998073M-1 0L-1.062047 -0.998073M-0.562047 -0.132048L-1.062047 -0.998073M-0.062047 -0.998073L-1.062047 -0.998073M-0.333333 -0.313255L-1.062047 -0.998073M-1.29076 -0.024579L-1.062047 -0.998073M-0.062047 -0.998073L-1.019474 -0.709398M-1.852807 -0.156627L-1.019474 -0.709398M-0.957427 0.288675L-1.019474 -0.709398M-0.29076 -0.024579L-1.019474 -0.709398M-1.062047 -0.998073L-2.019474 -0.709398M-2.852807 -0.156627L-2.019474 -0.709398M-1.957427 0.288675L-2.019474 -0.709398M-1.019474 -0.709398L-2.019474 -0.709398M-1.29076 -0.024579L-2.019474 -0.709398M-2.019474 -0.709398L-1.519474 0.156627M-0.562047 -0.132048L-1.519474 0.156627M-2.352807 0.709398L-1.519474 0.156627M-1.457427 1.154701L-1.519474 0.156627M-1.019474 -0.709398L-1.519474 0.156627M-0.79076 0.841446L-1.519474 0.156627M-0.562047 -0.132048L0.437953 -0.132048M-0.062047 -0.998073L0.437953 -0.132048M-0.39538 0.420723L0.437953 -0.132048M-0.457427 -0.57735L0.437953 -0.132048M0.5 0.866025L0.437953 -0.132048M-1.519474 0.156627L-0.519474 0.156627M-1.019474 -0.709398L-0.519474 0.156627M0.437953 -0.132048L-0.519474 0.156627M-1.352807 0.709398L-0.519474 0.156627M-0.457427 1.154701L-0.519474 0.156627M-1.29076 -0.024579L-0.79076 -0.890605M-1.624094 -0.337834L-0.79076 -0.890605M-0.728714 0.107468L-0.79076 -0.890605M0.10462 -0.445302L-0.79076 -0.890605M-0.29076 -0.024579L-0.79076 -0.890605M-2.019474 -0.709398L-1.519474 -1.575424M-2.352807 -1.022653L-1.519474 -1.575424M-1.457427 -0.57735L-1.519474 -1.575424M-1.019474 -0.709398L-1.519474 -1.575424M-0.79076 -0.890605L-1.519474 -1.575424M-1.519474 -1.575424L-0.519474 -1.575424M-1.019474 -0.709398L-0.519474 -1.575424M-1.352807 -1.022653L-0.519474 -1.575424M-0.457427 -0.57735L-0.519474 -1.575424M-1.019474 -0.709398L-0.019474 -0.709398M-0.519474 -1.575424L-0.019474 -0.709398M-0.519474 0.156627L-0.019474 -0.709398M-0.852807 -0.156627L-0.019474 -0.709398M0.042573 0.288675L-0.019474 -0.709398M-0.062047 -0.998073L0.437953 -1.864099M-0.39538 -1.311328L0.437953 -1.864099M0.5 -0.866025L0.437953 -1.864099M-0.519474 -1.575424L0.437953 -1.864099M-0.062047 -0.998073L0.937953 -0.998073M0.437953 -1.864099L0.937953 -0.998073M0.437953 -0.132048L0.937953 -0.998073M0.10462 -0.445302L0.937953 -0.998073M1 0L0.937953 -0.998073M-0.019474 -0.709398L0.937953 -0.998073M-1.062047 -0.998073L-0.562047 -1.864099M-1.39538 -1.311328L-0.562047 -1.864099M-0.5 -0.866025L-0.562047 -1.864099M-1.519474 -1.575424L-0.562047 -1.864099M-0.062047 -0.998073L-0.562047 -1.864099M0.437953 -1.864099L-0.562047 -1.864099M-0.79076 -0.890605L-0.562047 -1.864099M0.437953 -0.132048L0.20924 0.841446M-0.519474 0.156627L0.20924 0.841446M-0.79076 0.841446L0.20924 0.841446M-0.29076 -0.024579L0.20924 0.841446M-0.624094 1.394217L0.20924 0.841446M0.271286 1.839519L0.20924 0.841446M0.937953 -0.998073L0.70924 -0.024579M-0.019474 -0.709398L0.70924 -0.024579M-0.29076 -0.024579L0.70924 -0.024579M0.20924 0.841446L0.70924 -0.024579M-0.124094 0.528191L0.70924 -0.024579M0.771286 0.973494L0.70924 -0.024579M-1.457427 -0.57735L-0.624094 -1.130121M-1.519474 -1.575424L-0.624094 -1.130121M-0.562047 -0.132048L-0.624094 -1.130121M0.10462 -0.445302L-0.624094 -1.130121M-0.852807 -0.156627L-0.624094 -1.130121M-1.957427 0.288675L-1.062047 0.733978M-0.562047 -0.132048L-1.062047 0.733978M-0.333333 1.418796L-1.062047 0.733978M-1.29076 1.707471L-1.062047 0.733978M-1.957427 0.288675L-1.124094 -0.264096M-2.019474 -0.709398L-1.124094 -0.264096M-1.062047 0.733978L-1.124094 -0.264096M-0.624094 -1.130121L-1.124094 -0.264096M-0.39538 0.420723L-1.124094 -0.264096M-1.352807 0.709398L-1.124094 -0.264096M-1.062047 0.733978L-0.062047 0.733978M-0.562047 -0.132048L-0.062047 0.733978M-0.957427 0.288675L-0.062047 0.733978M0.437953 -0.132048L-0.062047 0.733978M-1.124094 -0.264096L-0.124094 -0.264096M-0.624094 -1.130121L-0.124094 -0.264096M-0.957427 0.288675L-0.124094 -0.264096M-1.019474 -0.709398L-0.124094 -0.264096M-0.062047 0.733978L-0.124094 -0.264096M-1.39538 0.420723L-0.666667 1.105542M-1.562047 0.660239L-0.666667 1.105542M-0.728714 0.107468L-0.666667 1.105542M0.166667 0.552771L-0.666667 1.105542M-1.624094 1.394217L-0.666667 1.105542M-0.39538 0.420723L0.10462 1.286748M-0.728714 1.839519L0.10462 1.286748M-0.79076 0.841446L0.10462 1.286748M0.042573 0.288675L0.10462 1.286748M-1.39538 0.420723L-0.89538 1.286748M-1.79076 0.841446L-0.89538 1.286748M-0.957427 0.288675L-0.89538 1.286748M-0.062047 0.733978L-0.89538 1.286748M-0.39538 0.420723L-0.89538 1.286748M0.10462 1.286748L-0.89538 1.286748M-0.124094 -0.264096L0.60462 0.420723M-0.39538 0.420723L0.60462 0.420723M0.10462 -0.445302L0.60462 0.420723M0.10462 1.286748L0.60462 0.420723M-0.228714 0.973494L0.60462 0.420723M-0.29076 -0.024579L0.60462 0.420723M-0.39538 0.420723L0.333333 1.105542M-0.666667 1.105542L0.333333 1.105542M-0.562047 0.660239L0.333333 1.105542M0.271286 0.107468L0.333333 1.105542M-0.624094 1.394217L0.333333 1.105542M-0.062047 0.733978L0.666667 1.418796M-0.333333 1.418796L0.666667 1.418796M0.166667 0.552771L0.666667 1.418796M-0.228714 0.973494L0.666667 1.418796M0.60462 0.420723L0.666667 1.418796M-0.89538 1.286748L-0.166667 1.971567M-0.666667 1.105542L-0.166667 1.971567M-1.062047 1.526265L-0.166667 1.971567M-0.228714 0.973494L-0.166667 1.971567M0.666667 1.418796L-0.166667 1.971567M0.333333 1.105542L-0.166667 1.971567M0.437953 -0.132048L1.166667 0.552771M0.166667 0.552771L1.166667 0.552771M0.666667 1.418796L1.166667 0.552771M0.333333 1.105542L1.166667 0.552771M0.271286 0.107468L1.166667 0.552771M0.20924 0.841446L1.166667 0.552771M0.437953 -1.864099L0.20924 -0.890605M-0.519474 -1.575424L0.20924 -0.890605M-0.79076 -0.890605L0.20924 -0.890605M-0.29076 -0.024579L0.20924 -0.890605M-0.624094 -0.337834L0.20924 -0.890605M0.271286 0.107468L0.20924 -0.890605M0.70924 -0.024579L0.20924 -0.890605"/></g>
<g class="nodes"><circle class="node" cx="-1.624094" cy="-0.337834" r="0.055"/><circle class="node" cx="-1.562047" cy="0.660239" r="0.055"/><circle class="node" cx="-1.39538" cy="-1.311328" r="0.055"/><circle class="node" cx="-0.728714" cy="0.107468" r="0.055"/><circle class="node" cx="-2.29076" cy="-0.024579" r="0.055"/><circle class="node" cx="-2.352807" cy="-1.022653" r="0.055"/><circle class="node" cx="-0.5" cy="-0.866025" r="0.055"/><circle class="node" cx="-1.333333" cy="-0.313255" r="0.055"/><circle class="node" cx="-1.457427" cy="-0.57735" r="0.055"/><circle class="node" cx="-1.79076" cy="0.841446" r="0.055"/><circle class="node" cx="-0.89538" cy="-0.445302" r="0.055"/><circle class="node" cx="-0.39538" cy="-1.311328" r="0.055"/><circle class="node" cx="-1.852807" cy="-0.156627" r="0.055"/><circle class="node" cx="-0.957427" cy="0.288675" r="0.055"/><circle class="node" cx="0" cy="0" r="0.055"/><circle class="node" cx="0.5" cy="-0.866025" r="0.055"/><circle class="node" cx="-0.833333" cy="0.552771" r="0.055"/><circle class="node" cx="-1.062047" cy="1.526265" r="0.055"/><circle class="node" cx="-1.124094" cy="0.528191" r="0.055"/><circle class="node" cx="-0.333333" cy="-0.313255" r="0.055"/><circle class="node" cx="-0.228714" cy="0.973494" r="0.055"/><circle class="node" cx="0.166667" cy="0.552771" r="0.055"/><circle class="node" cx="-1.29076" cy="-0.024579" r="0.055"/><circle class="node" cx="0.10462" cy="-0.445302" r="0.055"/><circle class="node" cx="-0.457427" cy="-0.57735" r="0.055"/><circle class="node" cx="0.271286" cy="0.107468" r="0.055"/><circle class="node" cx="1" cy="0" r="0.055"/><circle class="node" cx="-0.562047" cy="0.660239" r="0.055"/><circle class="node" cx="-0.624094" cy="-0.337834" r="0.055"/><circle class="node" cx="-0.79076" cy="0.841446" r="0.055"/><circle class="node" cx="0.042573" cy="0.288675" r="0.055"/><circle class="node" cx="0.771286" cy="0.973494" r="0.055"/><circle class="node" cx="-0.062047" cy="1.526265" r="0.055"/><circle class="node" cx="-0.852807" cy="-0.156627" r="0.055"/><circle class="node" cx="-0.124094" cy="0.528191" r="0.055"/><circle class="node" cx="-1.352807" cy="-1.022653" r="0.055"/><circle class="node" cx="-1.39538" cy="0.420723" r="0.055"/><circle class="node" cx="-0.39538" cy="0.420723" r="0.055"/><circle class="node" cx="-1.228714" cy="0.973494" r="0.055"/><circle class="node" cx="-2.124094" cy="0.528191" r="0.055"/><circle class="node" cx="-1.89538" cy="-0.445302" r="0.055"/><circle class="node" cx="-2.852807" cy="-0.156627" r="0.055"/><circle class="node" cx="-2.79076" cy="0.841446" r="0.055"/><circle class="node" cx="-1.957427" cy="0.288675" r="0.055"/><circle class="node" cx="-2.062047" cy="1.526265" r="0.055"/><circle class="node" cx="-1.833333" cy="0.552771" r="0.055"/><circle class="node" cx="-1.624094" cy="1.394217" r="0.055"/><circle class="node" cx="-0.728714" cy="1.839519" r="0.055"/><circle class="node" cx="-0.624094" cy="1.394217" r="0.055"/><circle class="node" cx="0.271286" cy="1.839519" r="0.055"/><circle class="node" cx="-2.352807" cy="0.709398" r="0.055"/><circle class="node" cx="-0.562047" cy="2.39229" r="0.055"/><circle class="node" cx="-0.333333" cy="1.418796" r="0.055"/><circle class="node" cx="-1.333333" cy="1.418796" r="0.055"/><circle class="node" cx="-2.29076" cy="1.707471" r="0.055"/><circle class="node" cx="-1.457427" cy="1.154701" r="0.055"/><circle class="node" cx="-1.352807" cy="0.709398" r="0.055"/><circle class="node" cx="-1" cy="0" r="0.055"/><circle class="node" cx="-0.5" cy="0.866025" r="0.055"/><circle class="node" cx="-0.457427" cy="1.154701" r="0.055"/><circle class="node" cx="-1.29076" cy="1.707471" r="0.055"/><circle class="node" cx="0.5" cy="0.866025" r="0.055"/><circle class="node" cx="-1.562047" cy="2.39229" r="0.055"/><circle class="node" cx="-0.562047" cy="-0.132048" r="0.055"/><circle class="node" cx="-0.29076" cy="-0.024579" r="0.055"/><circle class="node" cx="-0.062047" cy="-0.998073" r="0.055"/><circle class="node" cx="-1.062047" cy="-0.998073" r="0.055"/><circle class="node" cx="-1.019474" cy="-0.709398" r="0.055"/><circle class="node" cx="-2.019474" cy="-0.709398" r="0.055"/><circle class="node" cx="-1.519474" cy="0.156627" r="0.055"/><circle class="node" cx="0.437953" cy="-0.132048" r="0.055"/><circle class="node" cx="-0.519474" cy="0.156627" r="0.055"/><circle class="node" cx="-0.79076" cy="-0.890605" r="0.055"/><circle class="node" cx="-1.519474" cy="-1.575424" r="0.055"/><circle class="node" cx="-0.519474" cy="-1.575424" r="0.055"/><circle class="node" cx="-0.019474" cy="-0.709398" r="0.055"/><circle class="node" cx="0.437953" cy="-1.864099" r="0.055"/><circle class="node" cx="0.937953" cy="-0.998073" r="0.055"/><circle class="node" cx="-0.562047" cy="-1.864099" r="0.055"/><circle class="node" cx="0.20924" cy="0.841446" r="0.055"/><circle class="node" cx="0.70924" cy="-0.024579" r="0.055"/><circle class="node" cx="-0.624094" cy="-1.130121" r="0.055"/><circle class="node" cx="-1.062047" cy="0.733978" r="0.055"/><circle class="node" cx="-1.124094" cy="-0.264096" r="0.055"/><circle class="node" cx="-0.062047" cy="0.733978" r="0.055"/><circle class="node" cx="-0.124094" cy="-0.264096" r="0.055"/><circle class="node" cx="-0.666667" cy="1.105542" r="0.055"/><circle class="node" cx="0.10462" cy="1.286748" r="0.055"/><circle class="node" cx="-0.89538" cy="1.286748" r="0.055"/><circle class="node" cx="0.60462" cy="0.420723" r="0.055"/><circle class="node" cx="0.333333" cy="1.105542" r="0.055"/><circle class="node" cx="0.666667" cy="1.418796" r="0.055"/><circle class="node" cx="-0.166667" cy="1.971567" r="0.055"/><circle class="node" cx="1.166667" cy="0.552771" r="0.055"/><circle class="node" cx="0.20924" cy="-0.890605" r="0.055"/></g>
</svg>
