<?xml version="1.0" encoding="UTF-8"?>
<svg xmlns="http://www.w3.org/2000/svg" viewBox="-4.429704 -2.169709 4.859407 5.312911" preserveAspectRatio="xMidYMid meet" role="img">
<style>.edge{fill:none;stroke:var(--udg-edge,#60a5fa);stroke-width:var(--udg-edge-width,1.35px);stroke-opacity:var(--udg-edge-opacity,.38);stroke-linecap:round;vector-effect:non-scaling-stroke}.node{fill:var(--udg-node,#f8fafc);stroke:var(--udg-node-outline,#020617);stroke-width:var(--udg-node-outline-width,.75px);vector-effect:non-scaling-stroke}</style>
<g class="edges"><path class="edge" d="M-1.833333 2.284822L-2.728714 1.839519M-2.728714 1.839519L-1.89538 1.286748M-1.833333 2.284822L-1.89538 1.286748M-1.833333 2.284822L-1.60462 1.311328M-1.60462 1.311328L-1.666667 0.313255M-1.89538 1.286748L-1.666667 0.313255M-1.60462 1.311328L-2.5 0.866025M-1.666667 0.313255L-2.5 0.866025M-2.728714 1.839519L-2.5 0.866025M-1.60462 1.311328L-1.10462 0.445302M-1.10462 0.445302L-1.333333 1.418796M-1.833333 2.284822L-1.333333 1.418796M-1.89538 1.286748L-1.39538 0.420723M-1.333333 1.418796L-1.39538 0.420723M-1.666667 0.313255L-1.166667 -0.552771M-1.10462 0.445302L-1.166667 -0.552771M-1.39538 0.420723L-1.166667 -0.552771M-2.5 0.866025L-2 0M-1.10462 0.445302L-2 0M-1.166667 -0.552771L-2 0M-2 0L-2.228714 0.973494M-2.728714 1.839519L-2.228714 0.973494M-1.333333 1.418796L-2.228714 0.973494M-1.39538 0.420723L-2.228714 0.973494M-1.666667 0.313255L-0.937953 0.998073M-1.89538 1.286748L-0.937953 0.998073M-1.60462 1.311328L-0.875906 1.996146M-0.937953 0.998073L-0.875906 1.996146M-1.833333 2.284822L-0.875906 1.996146M-2.5 0.866025L-1.771286 1.550844M-0.875906 1.996146L-1.771286 1.550844M-0.937953 0.998073L-1.771286 1.550844M-2.728714 1.839519L-1.771286 1.550844M-1.166667 -0.552771L-0.437953 0.132048M-0.937953 0.998073L-0.437953 0.132048M-1.39538 0.420723L-0.437953 0.132048M-2 0L-1.271286 0.684819M-1.771286 1.550844L-1.271286 0.684819M-0.437953 0.132048L-1.271286 0.684819M-2.228714 0.973494L-1.271286 0.684819M-1.10462 0.445302L-0.375906 1.130121M-0.875906 1.996146L-0.375906 1.130121M-1.271286 0.684819L-0.375906 1.130121M-0.437953 0.132048L-0.375906 1.130121M-1.333333 1.418796L-0.375906 1.130121M-2.5 0.866025L-3 0M-2 0L-3 0M-3 0L-3.228714 0.973494M-2.728714 1.839519L-3.228714 0.973494M-2.228714 0.973494L-3.228714 0.973494M-3 0L-2.271286 0.684819M-3.228714 0.973494L-2.271286 0.684819M-1.771286 1.550844L-2.271286 0.684819M-1.271286 0.684819L-2.271286 0.684819M-3.228714 0.973494L-2.39538 0.420723M-1.89538 1.286748L-2.39538 0.420723M-1.39538 0.420723L-2.39538 0.420723M-2.271286 0.684819L-1.437953 0.132048M-2.39538 0.420723L-1.437953 0.132048M-0.937953 0.998073L-1.437953 0.132048M-0.437953 0.132048L-1.437953 0.132048M-3 0L-2.166667 -0.552771M-1.666667 0.313255L-2.166667 -0.552771M-1.166667 -0.552771L-2.166667 -0.552771M-1.437953 0.132048L-2.166667 -0.552771M-2.39538 0.420723L-2.166667 -0.552771M-2.271286 0.684819L-1.375906 1.130121M-1.437953 0.132048L-1.375906 1.130121M-0.875906 1.996146L-1.375906 1.130121M-0.375906 1.130121L-1.375906 1.130121M-3 0L-2.10462 0.445302M-2.166667 -0.552771L-2.10462 0.445302M-1.60462 1.311328L-2.10462 0.445302M-1.10462 0.445302L-2.10462 0.445302M-1.375906 1.130121L-2.10462 0.445302M-2.10462 0.445302L-2.333333 1.418796M-1.375906 1.130121L-2.333333 1.418796M-3.228714 0.973494L-2.333333 1.418796M-2.39538 0.420723L-2.333333 1.418796M-1.833333 2.284822L-2.333333 1.418796M-1.333333 1.418796L-2.333333 1.418796M-2 0L-1.937953 0.998073M-1.10462 0.445302L-1.937953 0.998073M-1.437953 0.132048L-1.937953 0.998073M-0.937953 0.998073L-1.937953 0.998073M-3 0L-2.937953 0.998073M-2.10462 0.445302L-2.937953 0.998073M-1.937953 0.998073L-2.937953 0.998073M-2.937953 0.998073L-3.166667 1.971567M-3.228714 0.973494L-3.166667 1.971567M-2.333333 1.418796L-3.166667 1.971567M-2.937953 0.998073L-2.20924 1.682892M-2.271286 0.684819L-2.20924 1.682892M-1.375906 1.130121L-2.20924 1.682892M-3.166667 1.971567L-2.20924 1.682892M-1.937953 0.998073L-1.20924 1.682892M-2.20924 1.682892L-1.20924 1.682892M-1.271286 0.684819L-1.20924 1.682892M-0.375906 1.130121L-1.20924 1.682892M-1.937953 0.998073L-2.166667 1.971567M-3.166667 1.971567L-2.166667 1.971567M-1.20924 1.682892L-2.166667 1.971567M-2.228714 0.973494L-2.166667 1.971567M-1.333333 1.418796L-2.166667 1.971567M-3.166667 1.971567L-2.666667 2.837592M-2.728714 1.839519L-2.666667 2.837592M-1.833333 2.284822L-2.666667 2.837592M-2.166667 1.971567L-2.666667 2.837592M-2.937953 0.998073L-2.437953 1.864099M-2.5 0.866025L-2.437953 1.864099M-1.60462 1.311328L-2.437953 1.864099M-1.937953 0.998073L-2.437953 1.864099M-2.666667 2.837592L-2.437953 1.864099M-2.437953 1.864099L-1.70924 2.548917M-2.20924 1.682892L-1.70924 2.548917M-1.771286 1.550844L-1.70924 2.548917M-0.875906 1.996146L-1.70924 2.548917M-1.20924 1.682892L-1.70924 2.548917M-2.666667 2.837592L-1.70924 2.548917M-2.333333 1.418796L-1.833333 0.552771M-1.771286 1.550844L-1.833333 0.552771M-0.937953 0.998073L-1.833333 0.552771M-1.333333 1.418796L-1.833333 0.552771M-3.166667 1.971567L-2.666667 1.105542M-1.771286 1.550844L-2.666667 1.105542M-1.833333 0.552771L-2.666667 1.105542M-2.166667 1.971567L-2.666667 1.105542M-1.937953 0.998073L-2.833333 0.552771M-2 0L-2.833333 0.552771M-2.333333 1.418796L-2.833333 0.552771M-1.833333 0.552771L-2.833333 0.552771M-2.833333 0.552771L-2.333333 -0.313255M-2.271286 0.684819L-2.333333 -0.313255M-1.437953 0.132048L-2.333333 -0.313255M-1.833333 0.552771L-2.333333 -0.313255M-2.437953 1.864099L-3.333333 1.418796M-2.5 0.866025L-3.333333 1.418796M-2.833333 0.552771L-3.333333 1.418796M-2.333333 1.418796L-3.333333 1.418796M-3.333333 1.418796L-3.39538 0.420723M-2.5 0.866025L-3.39538 0.420723M-2.39538 0.420723L-3.39538 0.420723M-2.666667 1.105542L-3.39538 0.420723M-3.39538 0.420723L-2.562047 -0.132048M-2.5 0.866025L-2.562047 -0.132048M-1.666667 0.313255L-2.562047 -0.132048M-1.833333 0.552771L-2.562047 -0.132048M-3 0L-3.062047 -0.998073M-2.166667 -0.552771L-3.062047 -0.998073M-2.562047 -0.132048L-3.062047 -0.998073M-2.333333 -0.313255L-3.062047 -0.998073M-3.062047 -0.998073L-2.062047 -0.998073M-2.562047 -0.132048L-2.062047 -0.998073M-2 0L-2.062047 -0.998073M-1.166667 -0.552771L-2.062047 -0.998073M-3.39538 0.420723L-2.89538 -0.445302M-2.833333 0.552771L-2.89538 -0.445302M-2 0L-2.89538 -0.445302M-2.062047 -0.998073L-2.89538 -0.445302M-2.39538 0.420723L-2.89538 -0.445302M-2.062047 -0.998073L-1.333333 -0.313255M-2.333333 -0.313255L-1.333333 -0.313255M-1.833333 0.552771L-1.333333 -0.313255M-1.271286 0.684819L-1.333333 -0.313255M-0.437953 0.132048L-1.333333 -0.313255M-2.89538 -0.445302L-2.166667 0.239516M-2.666667 1.105542L-2.166667 0.239516M-1.271286 0.684819L-2.166667 0.239516M-1.333333 -0.313255L-2.166667 0.239516M-2.833333 0.552771L-2.10462 1.237589M-2.166667 0.239516L-2.10462 1.237589M-1.20924 1.682892L-2.10462 1.237589M-1.271286 0.684819L-2.10462 1.237589M-3.333333 1.418796L-2.60462 2.103615M-2.666667 1.105542L-2.60462 2.103615M-1.70924 2.548917L-2.60462 2.103615M-1.771286 1.550844L-2.60462 2.103615M-2.10462 1.237589L-2.60462 2.103615M-2.20924 1.682892L-3.10462 1.237589M-2.271286 0.684819L-3.10462 1.237589M-2.60462 2.103615L-3.10462 1.237589M-2.10462 1.237589L-3.10462 1.237589M-3.10462 1.237589L-3.166667 0.239516M-2.271286 0.684819L-3.166667 0.239516M-2.333333 -0.313255L-3.166667 0.239516M-2.666667 1.105542L-3.166667 0.239516M-2.166667 0.239516L-3.166667 0.239516M-2.937953 0.998073L-3.833333 0.552771M-3 0L-3.833333 0.552771M-3.333333 1.418796L-3.833333 0.552771M-2.833333 0.552771L-3.833333 0.552771M-3.10462 1.237589L-3.833333 0.552771M-3.833333 0.552771L-3.89538 -0.445302M-3 0L-3.89538 -0.445302M-3.062047 -0.998073L-3.89538 -0.445302M-3.39538 0.420723L-3.89538 -0.445302M-2.89538 -0.445302L-3.89538 -0.445302M-3.166667 0.239516L-3.89538 -0.445302M-2.562047 -0.132048L-2.79076 0.841446M-1.833333 0.552771L-2.79076 0.841446M-2.728714 1.839519L-2.79076 0.841446M-1.89538 1.286748L-2.79076 0.841446M-2.062047 -0.998073L-2.29076 -0.024579M-1.333333 -0.313255L-2.29076 -0.024579M-2.79076 0.841446L-2.29076 -0.024579M-2.228714 0.973494L-2.29076 -0.024579M-1.39538 0.420723L-2.29076 -0.024579M-3.062047 -0.998073L-3.29076 -0.024579M-2.333333 -0.313255L-3.29076 -0.024579M-3.228714 0.973494L-3.29076 -0.024579M-2.39538 0.420723L-3.29076 -0.024579M-2.79076 0.841446L-3.29076 -0.024579M-2.29076 -0.024579L-3.29076 -0.024579M-3.89538 -0.445302L-4.124094 0.528191M-3.166667 0.239516L-4.124094 0.528191M-3.228714 0.973494L-4.124094 0.528191M-3.29076 -0.024579L-4.124094 0.528191M-3.833333 0.552771L-4.062047 1.526265M-3.10462 1.237589L-4.062047 1.526265M-4.124094 0.528191L-4.062047 1.526265M-3.166667 1.971567L-4.062047 1.526265M-3.228714 0.973494L-4.062047 1.526265M-3.333333 1.418796L-3.562047 2.39229M-4.062047 1.526265L-3.562047 2.39229M-2.60462 2.103615L-3.562047 2.39229M-2.666667 2.837592L-3.562047 2.39229M-2.728714 1.839519L-3.562047 2.39229M-3.39538 0.420723L-3.624094 1.394217M-4.124094 0.528191L-3.624094 1.394217M-2.666667 1.105542L-3.624094 1.394217M-3.562047 2.39229L-3.624094 1.394217M-2.728714 1.839519L-3.624094 1.394217M-2.79076 0.841446L-3.624094 1.394217M-2.89538 -0.445302L-3.124094 0.528191M-4.124094 0.528191L-3.124094 0.528191M-2.166667 0.239516L-3.124094 0.528191M-3.624094 1.394217L-3.124094 0.528191M-2.228714 0.973494L-3.124094 0.528191M-2.29076 -0.024579L-3.124094 0.528191M-2.833333 0.552771L-3.062047 1.526265M-4.062047 1.526265L-3.062047 1.526265M-2.10462 1.237589L-3.062047 1.526265M-3.562047 2.39229L-3.062047 1.526265M-3.124094 0.528191L-3.062047 1.526265M-2.166667 1.971567L-3.062047 1.526265M-2.228714 0.973494L-3.062047 1.526265M-2.937953 0.998073L-2.437953 0.132048M-3.39538 0.420723L-2.437953 0.132048M-1.937953 0.998073L-2.437953 0.132048M-1.437953 0.132048L-2.437953 0.132048M-2.666667 1.105542L-2.437953 0.132048M-3.228714 0.973494L-2.728714 0.107468M-2.666667 1.105542L-2.728714 0.107468M-1.833333 0.552771L-2.728714 0.107468M-2.228714 0.973494L-2.728714 0.107468M-2.89538 -0.445302L-1.89538 -0.445302M-2.39538 0.420723L-1.89538 -0.445302M-2.728714 0.107468L-1.89538 -0.445302M-1.833333 0.552771L-1.89538 -0.445302M-1.39538 0.420723L-1.89538 -0.445302M-2.10462 0.445302L-1.60462 -0.420723M-2.437953 0.132048L-1.60462 -0.420723M-2.562047 -0.132048L-1.60462 -0.420723M-1.10462 0.445302L-1.60462 -0.420723M-1.833333 0.552771L-1.60462 -0.420723M-3 0L-2.5 -0.866025M-2.437953 0.132048L-2.5 -0.866025M-1.60462 -0.420723L-2.5 -0.866025M-2 0L-2.5 -0.866025M-2.728714 0.107468L-2.5 -0.866025M-1.60462 -0.420723L-0.875906 0.264096M-1.375906 1.130121L-0.875906 0.264096M-1.833333 0.552771L-0.875906 0.264096M-0.375906 1.130121L-0.875906 0.264096M-2.5 -0.866025L-1.771286 -0.181207M-2.271286 0.684819L-1.771286 -0.181207M-0.875906 0.264096L-1.771286 -0.181207M-2.728714 0.107468L-1.771286 -0.181207M-1.271286 0.684819L-1.771286 -0.181207M-1.437953 0.132048L-0.937953 -0.733978M-1.771286 -0.181207L-0.937953 -0.733978M-0.875906 0.264096L-0.937953 -0.733978M-1.89538 -0.445302L-0.937953 -0.733978M-0.437953 0.132048L-0.937953 -0.733978M-2.166667 -0.552771L-1.666667 -1.418796M-2.5 -0.866025L-1.666667 -1.418796M-1.60462 -0.420723L-1.666667 -1.418796M-1.166667 -0.552771L-1.666667 -1.418796M-0.937953 -0.733978L-1.666667 -1.418796M-1.89538 -0.445302L-1.666667 -1.418796M-2.333333 -0.313255L-1.833333 -1.17928M-1.771286 -0.181207L-1.833333 -1.17928M-0.937953 -0.733978L-1.833333 -1.17928M-1.333333 -0.313255L-1.833333 -1.17928M-3.062047 -0.998073L-2.562047 -1.864099M-2.5 -0.866025L-2.562047 -1.864099M-1.666667 -1.418796L-2.562047 -1.864099M-2.062047 -0.998073L-2.562047 -1.864099M-1.833333 -1.17928L-2.562047 -1.864099M-2.562047 -1.864099L-2.79076 -0.890605M-1.833333 -1.17928L-2.79076 -0.890605M-3.29076 -0.024579L-2.79076 -0.890605M-2.728714 0.107468L-2.79076 -0.890605M-1.89538 -0.445302L-2.79076 -0.890605M-2.29076 -0.024579L-2.79076 -0.890605M-2.437953 0.132048L-1.70924 0.816866M-2.20924 1.682892L-1.70924 0.816866M-1.771286 -0.181207L-1.70924 0.816866M-0.875906 0.264096L-1.70924 0.816866M-2.666667 1.105542L-1.70924 0.816866M-1.20924 1.682892L-1.70924 0.816866M-3.833333 0.552771L-3.333333 -0.313255M-2.437953 0.132048L-3.333333 -0.313255M-2.5 -0.866025L-3.333333 -0.313255M-2.833333 0.552771L-3.333333 -0.313255M-2.333333 -0.313255L-3.333333 -0.313255M-3.333333 -0.313255L-3.562047 0.660239M-4.062047 1.526265L-3.562047 0.660239M-2.666667 1.105542L-3.562047 0.660239M-2.728714 0.107468L-3.562047 0.660239M-3.062047 1.526265L-3.562047 0.660239M-3.333333 -0.313255L-2.60462 0.371564M-3.10462 1.237589L-2.60462 0.371564M-1.70924 0.816866L-2.60462 0.371564M-1.771286 -0.181207L-2.60462 0.371564M-3.562047 0.660239L-2.60462 0.371564M-2.10462 1.237589L-2.60462 0.371564M-4.124094 0.528191L-3.624094 -0.337834M-3.562047 0.660239L-3.624094 -0.337834M-2.728714 0.107468L-3.624094 -0.337834M-2.79076 -0.890605L-3.624094 -0.337834M-3.124094 0.528191L-3.624094 -0.337834M-3.166667 0.239516L-2.666667 -0.626509M-2.60462 0.371564L-2.666667 -0.626509M-1.771286 -0.181207L-2.666667 -0.626509M-1.833333 -1.17928L-2.666667 -0.626509M-3.624094 -0.337834L-2.666667 -0.626509M-2.166667 0.239516L-2.666667 -0.626509M-3.89538 -0.445302L-3.39538 -1.311328M-3.333333 -0.313255L-3.39538 -1.311328M-2.5 -0.866025L-3.39538 -1.311328M-2.562047 -1.864099L-3.39538 -1.311328M-2.89538 -0.445302L-3.39538 -1.311328M-2.666667 -0.626509L-3.39538 -1.311328M-3.624094 -0.337834L-3.39538 -1.311328M-1.437953 0.132048L-1.666667 1.105542M-2.39538 0.420723L-1.666667 1.105542M-2.666667 1.105542L-1.666667 1.105542M-2.166667 0.239516L-1.666667 1.105542M-2.166667 1.971567L-1.666667 1.105542M-2.333333 -0.313255L-2.562047 0.660239M-3.29076 -0.024579L-2.562047 0.660239M-3.562047 0.660239L-2.562047 0.660239M-3.062047 1.526265L-2.562047 0.660239M-1.666667 1.105542L-2.562047 0.660239M-1.437953 0.132048L-0.70924 0.816866M-1.70924 0.816866L-0.70924 0.816866M-1.20924 1.682892L-0.70924 0.816866M-1.666667 1.105542L-0.70924 0.816866M-2.333333 -0.313255L-1.60462 0.371564M-2.60462 0.371564L-1.60462 0.371564M-2.10462 1.237589L-1.60462 0.371564M-0.70924 0.816866L-1.60462 0.371564M-2.562047 0.660239L-1.60462 0.371564M-2.5 -0.866025L-1.5 -0.866025M-2 0L-1.5 -0.866025M-2.333333 -0.313255L-1.5 -0.866025M-1.437953 0.132048L-1.5 -0.866025M-1.5 -0.866025L-0.771286 -0.181207M-1.771286 -0.181207L-0.771286 -0.181207M-1.271286 0.684819L-0.771286 -0.181207M-1.60462 0.371564L-0.771286 -0.181207M-0.70924 0.816866L-0.771286 -0.181207M-1.5 -0.866025L-1.728714 0.107468M-2.728714 0.107468L-1.728714 0.107468M-0.771286 -0.181207L-1.728714 0.107468M-2.228714 0.973494L-1.728714 0.107468M-2.562047 0.660239L-1.728714 0.107468M-1.666667 1.105542L-1.728714 0.107468M-3.39538 -1.311328L-2.39538 -1.311328M-2.89538 -0.445302L-2.39538 -1.311328M-2.333333 -0.313255L-2.39538 -1.311328M-1.5 -0.866025L-2.39538 -1.311328M-1.89538 -0.445302L-2.39538 -1.311328M-2.39538 -1.311328L-2.624094 -0.337834M-3.624094 -0.337834L-2.624094 -0.337834M-3.124094 0.528191L-2.624094 -0.337834M-2.562047 0.660239L-2.624094 -0.337834M-1.728714 0.107468L-2.624094 -0.337834M-2.39538 -1.311328L-1.666667 -0.626509M-2.666667 -0.626509L-1.666667 -0.626509M-2.166667 0.239516L-1.666667 -0.626509M-1.60462 0.371564L-1.666667 -0.626509M-0.771286 -0.181207L-1.666667 -0.626509M-2.624094 -0.337834L-1.666667 -0.626509M-2.562047 -1.864099L-1.562047 -1.864099M-2.062047 -0.998073L-1.562047 -1.864099M-2.39538 -1.311328L-1.562047 -1.864099M-1.5 -0.866025L-1.562047 -1.864099M-1.562047 -1.864099L-1.79076 -0.890605M-2.79076 -0.890605L-1.79076 -0.890605M-2.29076 -0.024579L-1.79076 -0.890605M-2.624094 -0.337834L-1.79076 -0.890605M-1.728714 0.107468L-1.79076 -0.890605M-1.562047 -1.864099L-0.833333 -1.17928M-1.833333 -1.17928L-0.833333 -1.17928M-1.333333 -0.313255L-0.833333 -1.17928M-1.666667 -0.626509L-0.833333 -1.17928M-0.771286 -0.181207L-0.833333 -1.17928M-1.79076 -0.890605L-0.833333 -1.17928M-1.833333 0.552771L-0.833333 0.552771M-1.333333 -0.313255L-0.833333 0.552771M-1.333333 1.418796L-0.833333 0.552771M-1.666667 1.105542L-0.833333 0.552771M-1.728714 0.107468L-0.833333 0.552771M-0.875906 0.264096L0.124094 0.264096M-0.375906 1.130121L0.124094 0.264096M-0.70924 0.816866L0.124094 0.264096M-0.771286 -0.181207L0.124094 0.264096M-0.833333 0.552771L0.124094 0.264096M-0.937953 -0.733978L0.062047 -0.733978M-0.437953 0.132048L0.062047 -0.733978M-0.771286 -0.181207L0.062047 -0.733978M-0.833333 -1.17928L0.062047 -0.733978M0.124094 0.264096L0.062047 -0.733978M-1.89538 -0.445302L-0.89538 -0.445302M0.062047 -0.733978L-0.89538 -0.445302M-1.39538 0.420723L-0.89538 -0.445302M-1.728714 0.107468L-0.89538 -0.445302M-1.79076 -0.890605L-0.89538 -0.445302M-0.833333 0.552771L-0.89538 -0.445302M-1.666667 -1.418796L-0.666667 -1.418796M-1.166667 -0.552771L-0.666667 -1.418796M-1.5 -0.866025L-0.666667 -1.418796M-1.562047 -1.864099L-0.666667 -1.418796M0.062047 -0.733978L-0.666667 -1.418796M-0.89538 -0.445302L-0.666667 -1.418796M-1.60462 -0.420723L-0.60462 -0.420723M-1.10462 0.445302L-0.60462 -0.420723M-1.437953 0.132048L-0.60462 -0.420723M-1.5 -0.866025L-0.60462 -0.420723M-0.666667 -1.418796L-0.60462 -0.420723M0.124094 0.264096L-0.60462 -0.420723M-0.833333 0.552771L-0.60462 -0.420723M-1.375906 1.130121L-1.60462 2.103615M-2.333333 1.418796L-1.60462 2.103615M-2.60462 2.103615L-1.60462 2.103615M-2.10462 1.237589L-1.60462 2.103615M-1.666667 1.105542L-1.60462 2.103615M-0.875906 0.264096L-1.10462 1.237589M-1.833333 0.552771L-1.10462 1.237589M-2.10462 1.237589L-1.10462 1.237589M-1.60462 0.371564L-1.10462 1.237589M-1.60462 2.103615L-1.10462 1.237589M-0.937953 -0.733978L-1.166667 0.239516M-1.89538 -0.445302L-1.166667 0.239516M-2.166667 0.239516L-1.166667 0.239516M-1.666667 -0.626509L-1.166667 0.239516M-1.666667 1.105542L-1.166667 0.239516M-1.10462 1.237589L-1.166667 0.239516"/></g>
<g class="nodes"><circle class="node" cx="-1.833333" cy="2.284822" r="0.055"/><circle class="node" cx="-2.728714" cy="1.839519" r="0.055"/><circle class="node" cx="-1.89538" cy="1.286748" r="0.055"/><circle class="node" cx="-1.60462" cy="1.311328" r="0.055"/><circle class="node" cx="-1.666667" cy="0.313255" r="0.055"/><circle class="node" cx="-2.5" cy="0.866025" r="0.055"/><circle class="node" cx="-1.10462" cy="0.445302" r="0.055"/><circle class="node" cx="-1.333333" cy="1.418796" r="0.055"/><circle class="node" cx="-1.39538" cy="0.420723" r="0.055"/><circle class="node" cx="-1.166667" cy="-0.552771" r="0.055"/><circle class="node" cx="-2" cy="0" r="0.055"/><circle class="node" cx="-2.228714" cy="0.973494" r="0.055"/><circle class="node" cx="-0.937953" cy="0.998073" r="0.055"/><circle class="node" cx="-0.875906" cy="1.996146" r="0.055"/><circle class="node" cx="-1.771286" cy="1.550844" r="0.055"/><circle class="node" cx="-0.437953" cy="0.132048" r="0.055"/><circle class="node" cx="-1.271286" cy="0.684819" r="0.055"/><circle class="node" cx="-0.375906" cy="1.130121" r="0.055"/><circle class="node" cx="-3" cy="0" r="0.055"/><circle class="node" cx="-3.228714" cy="0.973494" r="0.055"/><circle class="node" cx="-2.271286" cy="0.684819" r="0.055"/><circle class="node" cx="-2.39538" cy="0.420723" r="0.055"/><circle class="node" cx="-1.437953" cy="0.132048" r="0.055"/><circle class="node" cx="-2.166667" cy="-0.552771" r="0.055"/><circle class="node" cx="-1.375906" cy="1.130121" r="0.055"/><circle class="node" cx="-2.10462" cy="0.445302" r="0.055"/><circle class="node" cx="-2.333333" cy="1.418796" r="0.055"/><circle class="node" cx="-1.937953" cy="0.998073" r="0.055"/><circle class="node" cx="-2.937953" cy="0.998073" r="0.055"/><circle class="node" cx="-3.166667" cy="1.971567" r="0.055"/><circle class="node" cx="-2.20924" cy="1.682892" r="0.055"/><circle class="node" cx="-1.20924" cy="1.682892" r="0.055"/><circle class="node" cx="-2.166667" cy="1.971567" r="0.055"/><circle class="node" cx="-2.666667" cy="2.837592" r="0.055"/><circle class="node" cx="-2.437953" cy="1.864099" r="0.055"/><circle class="node" cx="-1.70924" cy="2.548917" r="0.055"/><circle class="node" cx="-1.833333" cy="0.552771" r="0.055"/><circle class="node" cx="-2.666667" cy="1.105542" r="0.055"/><circle class="node" cx="-2.833333" cy="0.552771" r="0.055"/><circle class="node" cx="-2.333333" cy="-0.313255" r="0.055"/><circle class="node" cx="-3.333333" cy="1.418796" r="0.055"/><circle class="node" cx="-3.39538" cy="0.420723" r="0.055"/><circle class="node" cx="-2.562047" cy="-0.132048" r="0.055"/><circle class="node" cx="-3.062047" cy="-0.998073" r="0.055"/><circle class="node" cx="-2.062047" cy="-0.998073" r="0.055"/><circle class="node" cx="-2.89538" cy="-0.445302" r="0.055"/><circle class="node" cx="-1.333333" cy="-0.313255" r="0.055"/><circle class="node" cx="-2.166667" cy="0.239516" r="0.055"/><circle class="node" cx="-2.10462" cy="1.237589" r="0.055"/><circle class="node" cx="-2.60462" cy="2.103615" r="0.055"/><circle class="node" cx="-3.10462" cy="1.237589" r="0.055"/><circle class="node" cx="-3.166667" cy="0.239516" r="0.055"/><circle class="node" cx="-3.833333" cy="0.552771" r="0.055"/><circle class="node" cx="-3.89538" cy="-0.445302" r="0.055"/><circle class="node" cx="-2.79076" cy="0.841446" r="0.055"/><circle class="node" cx="-2.29076" cy="-0.024579" r="0.055"/><circle class="node" cx="-3.29076" cy="-0.024579" r="0.055"/><circle class="node" cx="-4.124094" cy="0.528191" r="0.055"/><circle class="node" cx="-4.062047" cy="1.526265" r="0.055"/><circle class="node" cx="-3.562047" cy="2.39229" r="0.055"/><circle class="node" cx="-3.624094" cy="1.394217" r="0.055"/><circle class="node" cx="-3.124094" cy="0.528191" r="0.055"/><circle class="node" cx="-3.062047" cy="1.526265" r="0.055"/><circle class="node" cx="-2.437953" cy="0.132048" r="0.055"/><circle class="node" cx="-2.728714" cy="0.107468" r="0.055"/><circle class="node" cx="-1.89538" cy="-0.445302" r="0.055"/><circle class="node" cx="-1.60462" cy="-0.420723" r="0.055"/><circle class="node" cx="-2.5" cy="-0.866025" r="0.055"/><circle class="node" cx="-0.875906" cy="0.264096" r="0.055"/><circle class="node" cx="-1.771286" cy="-0.181207" r="0.055"/><circle class="node" cx="-0.937953" cy="-0.733978" r="0.055"/><circle class="node" cx="-1.666667" cy="-1.418796" r="0.055"/><circle class="node" cx="-1.833333" cy="-1.17928" r="0.055"/><circle class="node" cx="-2.562047" cy="-1.864099" r="0.055"/><circle class="node" cx="-2.79076" cy="-0.890605" r="0.055"/><circle class="node" cx="-1.70924" cy="0.816866" r="0.055"/><circle class="node" cx="-3.333333" cy="-0.313255" r="0.055"/><circle class="node" cx="-3.562047" cy="0.660239" r="0.055"/><circle class="node" cx="-2.60462" cy="0.371564" r="0.055"/><circle class="node" cx="-3.624094" cy="-0.337834" r="0.055"/><circle class="node" cx="-2.666667" cy="-0.626509" r="0.055"/><circle class="node" cx="-3.39538" cy="-1.311328" r="0.055"/><circle class="node" cx="-1.666667" cy="1.105542" r="0.055"/><circle class="node" cx="-2.562047" cy="0.660239" r="0.055"/><circle class="node" cx="-0.70924" cy="0.816866" r="0.055"/><circle class="node" cx="-1.60462" cy="0.371564" r="0.055"/><circle class="node" cx="-1.5" cy="-0.866025" r="0.055"/><circle class="node" cx="-0.771286" cy="-0.181207" r="0.055"/><circle class="node" cx="-1.728714" cy="0.107468" r="0.055"/><circle class="node" cx="-2.39538" cy="-1.311328" r="0.055"/><circle class="node" cx="-2.624094" cy="-0.337834" r="0.055"/><circle class="node" cx="-1.666667" cy="-0.626509" r="0.055"/><circle class="node" cx="-1.562047" cy="-1.864099" r="0.055"/><circle class="node" cx="-1.79076" cy="-0.890605" r="0.055"/><circle class="node" cx="-0.833333" cy="-1.17928" r="0.055"/><circle class="node" cx="-0.833333" cy="0.552771" r="0.055"/><circle class="node" cx="0.124094" cy="0.264096" r="0.055"/><circle class="node" cx="0.062047" cy="-0.733978" r="0.055"/><circle class="node" cx="-0.89538" cy="-0.445302" r="0.055"/><circle class="node" cx="-0.666667" cy="-1.418796" r="0.055"/><circle class="node" cx="-0.60462" cy="-0.420723" r="0.055"/><circle class="node" cx="-1.60462" cy="2.103615" r="0.055"/><circle class="node" cx="-1.10462" cy="1.237589" r="0.055"/><circle class="node" cx="-1.166667" cy="0.239516" r="0.055"/></g>
</svg>
